<mxfile host="Electron" modified="2025-04-03T04:02:00.332Z" agent="Mozilla/5.0 (Windows NT 10.0; Win64; x64) AppleWebKit/537.36 (KHTML, like Gecko) draw.io/21.5.0 Chrome/112.0.5615.204 Electron/24.5.1 Safari/537.36" etag="PkEWuZmuIrptvvnsi4M3" version="21.5.0" type="device">
  <diagram name="第 1 页" id="nJRzv5rlB3VEnub_vDUY">
    <mxGraphModel dx="1418" dy="820" grid="1" gridSize="10" guides="1" tooltips="1" connect="1" arrows="1" fold="1" page="1" pageScale="1" pageWidth="827" pageHeight="1169" math="0" shadow="0">
      <root>
        <mxCell id="0" />
        <mxCell id="1" parent="0" />
        <mxCell id="L7PPIbatm0o-3SstzBcX-66" value="&lt;font style=&quot;font-size: 16px;&quot;&gt;a3&lt;/font&gt;" style="rounded=0;whiteSpace=wrap;html=1;fillColor=#ffe6cc;strokeColor=#d79b00;" parent="1" vertex="1">
          <mxGeometry x="1090" y="870" width="30" height="30" as="geometry" />
        </mxCell>
        <mxCell id="L7PPIbatm0o-3SstzBcX-70" value="&lt;font style=&quot;font-size: 16px;&quot;&gt;a7&lt;/font&gt;" style="rounded=0;whiteSpace=wrap;html=1;fillColor=#ffe6cc;strokeColor=#d79b00;" parent="1" vertex="1">
          <mxGeometry x="970" y="870" width="30" height="30" as="geometry" />
        </mxCell>
        <mxCell id="L7PPIbatm0o-3SstzBcX-71" value="&lt;font style=&quot;font-size: 16px;&quot;&gt;a6&lt;/font&gt;" style="rounded=0;whiteSpace=wrap;html=1;fillColor=#ffe6cc;strokeColor=#d79b00;" parent="1" vertex="1">
          <mxGeometry x="1000" y="870" width="30" height="30" as="geometry" />
        </mxCell>
        <mxCell id="L7PPIbatm0o-3SstzBcX-72" value="&lt;font style=&quot;font-size: 16px;&quot;&gt;a5&lt;/font&gt;" style="rounded=0;whiteSpace=wrap;html=1;fillColor=#ffe6cc;strokeColor=#d79b00;" parent="1" vertex="1">
          <mxGeometry x="1030" y="870" width="30" height="30" as="geometry" />
        </mxCell>
        <mxCell id="L7PPIbatm0o-3SstzBcX-77" value="VLEN = 128bits&lt;br&gt;LMUL = 8&lt;br&gt;SEW = 32" style="text;strokeColor=none;align=left;fillColor=none;html=1;verticalAlign=middle;whiteSpace=wrap;rounded=0;" parent="1" vertex="1">
          <mxGeometry x="710" y="740" width="100" height="30" as="geometry" />
        </mxCell>
        <mxCell id="L7PPIbatm0o-3SstzBcX-81" value="&lt;font style=&quot;font-size: 16px;&quot;&gt;a2&lt;/font&gt;" style="rounded=0;whiteSpace=wrap;html=1;fillColor=#ffe6cc;strokeColor=#d79b00;" parent="1" vertex="1">
          <mxGeometry x="1120" y="870" width="30" height="30" as="geometry" />
        </mxCell>
        <mxCell id="L7PPIbatm0o-3SstzBcX-83" value="&lt;font style=&quot;font-size: 16px;&quot;&gt;a0&lt;/font&gt;" style="rounded=0;whiteSpace=wrap;html=1;fillColor=#f8cecc;strokeColor=#b85450;" parent="1" vertex="1">
          <mxGeometry x="1180" y="870" width="30" height="30" as="geometry" />
        </mxCell>
        <mxCell id="L7PPIbatm0o-3SstzBcX-84" value="&lt;font style=&quot;font-size: 16px;&quot;&gt;a4&lt;/font&gt;" style="rounded=0;whiteSpace=wrap;html=1;fillColor=#ffe6cc;strokeColor=#d79b00;" parent="1" vertex="1">
          <mxGeometry x="1060" y="870" width="30" height="30" as="geometry" />
        </mxCell>
        <mxCell id="L7PPIbatm0o-3SstzBcX-85" value="&lt;font style=&quot;font-size: 16px;&quot;&gt;a11&lt;/font&gt;" style="rounded=0;whiteSpace=wrap;html=1;fillColor=#ffe6cc;strokeColor=#d79b00;" parent="1" vertex="1">
          <mxGeometry x="850" y="870" width="30" height="30" as="geometry" />
        </mxCell>
        <mxCell id="L7PPIbatm0o-3SstzBcX-86" value="&lt;span style=&quot;font-size: 16px;&quot;&gt;a10&lt;/span&gt;" style="rounded=0;whiteSpace=wrap;html=1;fillColor=#d5e8d4;strokeColor=#82b366;" parent="1" vertex="1">
          <mxGeometry x="880" y="870" width="30" height="30" as="geometry" />
        </mxCell>
        <mxCell id="L7PPIbatm0o-3SstzBcX-87" value="&lt;font style=&quot;font-size: 16px;&quot;&gt;a9&lt;/font&gt;" style="rounded=0;whiteSpace=wrap;html=1;fillColor=#ffe6cc;strokeColor=#d79b00;" parent="1" vertex="1">
          <mxGeometry x="910" y="870" width="30" height="30" as="geometry" />
        </mxCell>
        <mxCell id="L7PPIbatm0o-3SstzBcX-89" value="&lt;font style=&quot;font-size: 16px;&quot;&gt;a8&lt;/font&gt;" style="rounded=0;whiteSpace=wrap;html=1;fillColor=#d5e8d4;strokeColor=#82b366;" parent="1" vertex="1">
          <mxGeometry x="940" y="870" width="30" height="30" as="geometry" />
        </mxCell>
        <mxCell id="L7PPIbatm0o-3SstzBcX-90" value="&lt;font style=&quot;font-size: 16px;&quot;&gt;a15&lt;/font&gt;" style="rounded=0;whiteSpace=wrap;html=1;fillColor=#ffe6cc;strokeColor=#d79b00;" parent="1" vertex="1">
          <mxGeometry x="730" y="870" width="30" height="30" as="geometry" />
        </mxCell>
        <mxCell id="L7PPIbatm0o-3SstzBcX-91" value="&lt;font style=&quot;font-size: 16px;&quot;&gt;a14&lt;/font&gt;" style="rounded=0;whiteSpace=wrap;html=1;fillColor=#ffe6cc;strokeColor=#d79b00;" parent="1" vertex="1">
          <mxGeometry x="760" y="870" width="30" height="30" as="geometry" />
        </mxCell>
        <mxCell id="L7PPIbatm0o-3SstzBcX-92" value="&lt;font style=&quot;font-size: 16px;&quot;&gt;a13&lt;/font&gt;" style="rounded=0;whiteSpace=wrap;html=1;fillColor=#ffe6cc;strokeColor=#d79b00;" parent="1" vertex="1">
          <mxGeometry x="790" y="870" width="30" height="30" as="geometry" />
        </mxCell>
        <mxCell id="L7PPIbatm0o-3SstzBcX-94" value="&lt;font style=&quot;font-size: 16px;&quot;&gt;a12&lt;/font&gt;" style="rounded=0;whiteSpace=wrap;html=1;fillColor=#ffe6cc;strokeColor=#d79b00;" parent="1" vertex="1">
          <mxGeometry x="820" y="870" width="30" height="30" as="geometry" />
        </mxCell>
        <mxCell id="L7PPIbatm0o-3SstzBcX-95" value="&lt;font style=&quot;font-size: 16px;&quot;&gt;a19&lt;/font&gt;" style="rounded=0;whiteSpace=wrap;html=1;fillColor=#ffe6cc;strokeColor=#d79b00;" parent="1" vertex="1">
          <mxGeometry x="610" y="870" width="30" height="30" as="geometry" />
        </mxCell>
        <mxCell id="L7PPIbatm0o-3SstzBcX-96" value="&lt;font style=&quot;font-size: 16px;&quot;&gt;a18&lt;/font&gt;" style="rounded=0;whiteSpace=wrap;html=1;fillColor=#ffe6cc;strokeColor=#d79b00;" parent="1" vertex="1">
          <mxGeometry x="640" y="870" width="30" height="30" as="geometry" />
        </mxCell>
        <mxCell id="L7PPIbatm0o-3SstzBcX-97" value="&lt;font style=&quot;font-size: 16px;&quot;&gt;a17&lt;/font&gt;" style="rounded=0;whiteSpace=wrap;html=1;fillColor=#ffe6cc;strokeColor=#d79b00;" parent="1" vertex="1">
          <mxGeometry x="670" y="870" width="30" height="30" as="geometry" />
        </mxCell>
        <mxCell id="L7PPIbatm0o-3SstzBcX-99" value="&lt;font style=&quot;font-size: 16px;&quot;&gt;a16&lt;/font&gt;" style="rounded=0;whiteSpace=wrap;html=1;fillColor=#ffe6cc;strokeColor=#d79b00;" parent="1" vertex="1">
          <mxGeometry x="700" y="870" width="30" height="30" as="geometry" />
        </mxCell>
        <mxCell id="L7PPIbatm0o-3SstzBcX-100" value="&lt;font style=&quot;font-size: 16px;&quot;&gt;a23&lt;/font&gt;" style="rounded=0;whiteSpace=wrap;html=1;fillColor=#ffe6cc;strokeColor=#d79b00;" parent="1" vertex="1">
          <mxGeometry x="490" y="870" width="30" height="30" as="geometry" />
        </mxCell>
        <mxCell id="L7PPIbatm0o-3SstzBcX-101" value="&lt;font style=&quot;font-size: 16px;&quot;&gt;a22&lt;/font&gt;" style="rounded=0;whiteSpace=wrap;html=1;fillColor=#ffe6cc;strokeColor=#d79b00;" parent="1" vertex="1">
          <mxGeometry x="520" y="870" width="30" height="30" as="geometry" />
        </mxCell>
        <mxCell id="L7PPIbatm0o-3SstzBcX-102" value="&lt;font style=&quot;font-size: 16px;&quot;&gt;a21&lt;/font&gt;" style="rounded=0;whiteSpace=wrap;html=1;fillColor=#ffe6cc;strokeColor=#d79b00;" parent="1" vertex="1">
          <mxGeometry x="550" y="870" width="30" height="30" as="geometry" />
        </mxCell>
        <mxCell id="L7PPIbatm0o-3SstzBcX-104" value="&lt;font style=&quot;font-size: 16px;&quot;&gt;a20&lt;/font&gt;" style="rounded=0;whiteSpace=wrap;html=1;fillColor=#ffe6cc;strokeColor=#d79b00;" parent="1" vertex="1">
          <mxGeometry x="580" y="870" width="30" height="30" as="geometry" />
        </mxCell>
        <mxCell id="L7PPIbatm0o-3SstzBcX-105" value="&lt;font style=&quot;font-size: 16px;&quot;&gt;a27&lt;/font&gt;" style="rounded=0;whiteSpace=wrap;html=1;fillColor=#ffe6cc;strokeColor=#d79b00;" parent="1" vertex="1">
          <mxGeometry x="368.99999999999994" y="870" width="30" height="30" as="geometry" />
        </mxCell>
        <mxCell id="L7PPIbatm0o-3SstzBcX-106" value="&lt;font style=&quot;font-size: 16px;&quot;&gt;a26&lt;/font&gt;" style="rounded=0;whiteSpace=wrap;html=1;fillColor=#ffe6cc;strokeColor=#d79b00;" parent="1" vertex="1">
          <mxGeometry x="398.99999999999994" y="870" width="30" height="30" as="geometry" />
        </mxCell>
        <mxCell id="L7PPIbatm0o-3SstzBcX-107" value="&lt;font style=&quot;font-size: 16px;&quot;&gt;a25&lt;/font&gt;" style="rounded=0;whiteSpace=wrap;html=1;fillColor=#ffe6cc;strokeColor=#d79b00;" parent="1" vertex="1">
          <mxGeometry x="429.99999999999994" y="870" width="30" height="30" as="geometry" />
        </mxCell>
        <mxCell id="L7PPIbatm0o-3SstzBcX-109" value="&lt;font style=&quot;font-size: 16px;&quot;&gt;a24&lt;/font&gt;" style="rounded=0;whiteSpace=wrap;html=1;fillColor=#ffe6cc;strokeColor=#d79b00;" parent="1" vertex="1">
          <mxGeometry x="459.99999999999994" y="870" width="30" height="30" as="geometry" />
        </mxCell>
        <mxCell id="L7PPIbatm0o-3SstzBcX-114" value="&lt;font style=&quot;font-size: 16px;&quot;&gt;a28&lt;/font&gt;" style="rounded=0;whiteSpace=wrap;html=1;fillColor=#ffe6cc;strokeColor=#d79b00;" parent="1" vertex="1">
          <mxGeometry x="338.99999999999994" y="870" width="30" height="30" as="geometry" />
        </mxCell>
        <mxCell id="L7PPIbatm0o-3SstzBcX-115" value="&lt;font style=&quot;font-size: 16px;&quot;&gt;a31&lt;/font&gt;" style="rounded=0;whiteSpace=wrap;html=1;fillColor=#dae8fc;strokeColor=#6c8ebf;" parent="1" vertex="1">
          <mxGeometry x="249" y="870" width="30" height="30" as="geometry" />
        </mxCell>
        <mxCell id="L7PPIbatm0o-3SstzBcX-116" value="&lt;font style=&quot;font-size: 16px;&quot;&gt;a30&lt;/font&gt;" style="rounded=0;whiteSpace=wrap;html=1;fillColor=#dae8fc;strokeColor=#6c8ebf;" parent="1" vertex="1">
          <mxGeometry x="279" y="870" width="30" height="30" as="geometry" />
        </mxCell>
        <mxCell id="L7PPIbatm0o-3SstzBcX-117" value="&lt;font style=&quot;font-size: 16px;&quot;&gt;a29&lt;/font&gt;" style="rounded=0;whiteSpace=wrap;html=1;fillColor=#dae8fc;strokeColor=#6c8ebf;" parent="1" vertex="1">
          <mxGeometry x="308.99999999999994" y="870" width="30" height="30" as="geometry" />
        </mxCell>
        <mxCell id="L7PPIbatm0o-3SstzBcX-118" value="" style="shape=curlyBracket;whiteSpace=wrap;html=1;rounded=1;labelPosition=left;verticalLabelPosition=middle;align=right;verticalAlign=middle;direction=south;size=0.5;" parent="1" vertex="1">
          <mxGeometry x="1150" y="830" width="60" height="20" as="geometry" />
        </mxCell>
        <mxCell id="L7PPIbatm0o-3SstzBcX-119" value="&lt;font style=&quot;font-size: 13px;&quot;&gt;Prestart 部分&lt;/font&gt;" style="text;strokeColor=none;align=center;fillColor=none;html=1;verticalAlign=middle;whiteSpace=wrap;rounded=0;" parent="1" vertex="1">
          <mxGeometry x="1150" y="800" width="80" height="30" as="geometry" />
        </mxCell>
        <mxCell id="L7PPIbatm0o-3SstzBcX-121" value="&lt;font style=&quot;font-size: 16px;&quot;&gt;a1&lt;/font&gt;" style="rounded=0;whiteSpace=wrap;html=1;fillColor=#f8cecc;strokeColor=#b85450;" parent="1" vertex="1">
          <mxGeometry x="1150" y="870" width="30" height="30" as="geometry" />
        </mxCell>
        <mxCell id="2iKayN9RznRLKGwLZatp-1" value="" style="shape=curlyBracket;whiteSpace=wrap;html=1;rounded=1;labelPosition=left;verticalLabelPosition=middle;align=right;verticalAlign=middle;direction=south;size=0.5;" parent="1" vertex="1">
          <mxGeometry x="340" y="830" width="810" height="20" as="geometry" />
        </mxCell>
        <mxCell id="2iKayN9RznRLKGwLZatp-2" value="&lt;font style=&quot;font-size: 13px;&quot;&gt;Body 部分&lt;/font&gt;" style="text;strokeColor=none;align=center;fillColor=none;html=1;verticalAlign=middle;whiteSpace=wrap;rounded=0;" parent="1" vertex="1">
          <mxGeometry x="710" y="800" width="80" height="30" as="geometry" />
        </mxCell>
        <mxCell id="2iKayN9RznRLKGwLZatp-3" value="" style="shape=curlyBracket;whiteSpace=wrap;html=1;rounded=1;labelPosition=left;verticalLabelPosition=middle;align=right;verticalAlign=middle;direction=south;size=0.5;" parent="1" vertex="1">
          <mxGeometry x="250" y="830" width="89" height="20" as="geometry" />
        </mxCell>
        <mxCell id="2iKayN9RznRLKGwLZatp-4" value="&lt;font style=&quot;font-size: 13px;&quot;&gt;Tail 部分&lt;/font&gt;" style="text;strokeColor=none;align=center;fillColor=none;html=1;verticalAlign=middle;whiteSpace=wrap;rounded=0;" parent="1" vertex="1">
          <mxGeometry x="260.32" y="800" width="80" height="30" as="geometry" />
        </mxCell>
        <mxCell id="2iKayN9RznRLKGwLZatp-5" value="&lt;font style=&quot;font-size: 13px;&quot;&gt;vstart&lt;/font&gt;" style="text;strokeColor=none;align=center;fillColor=none;html=1;verticalAlign=middle;whiteSpace=wrap;rounded=0;" parent="1" vertex="1">
          <mxGeometry x="1150" y="930" width="40" height="30" as="geometry" />
        </mxCell>
        <mxCell id="2iKayN9RznRLKGwLZatp-7" value="" style="endArrow=classic;html=1;rounded=0;" parent="1" edge="1">
          <mxGeometry width="50" height="50" relative="1" as="geometry">
            <mxPoint x="1157.1428571428573" y="926" as="sourcePoint" />
            <mxPoint x="1140" y="906" as="targetPoint" />
          </mxGeometry>
        </mxCell>
        <mxCell id="2iKayN9RznRLKGwLZatp-8" value="&lt;font style=&quot;font-size: 13px;&quot;&gt;vl -&amp;nbsp; 1&lt;/font&gt;" style="text;strokeColor=none;align=center;fillColor=none;html=1;verticalAlign=middle;whiteSpace=wrap;rounded=0;" parent="1" vertex="1">
          <mxGeometry x="296.63" y="930" width="40" height="30" as="geometry" />
        </mxCell>
        <mxCell id="2iKayN9RznRLKGwLZatp-9" value="" style="endArrow=classic;html=1;rounded=0;exitX=0.75;exitY=0;exitDx=0;exitDy=0;" parent="1" source="2iKayN9RznRLKGwLZatp-8" edge="1">
          <mxGeometry width="50" height="50" relative="1" as="geometry">
            <mxPoint x="350" y="920" as="sourcePoint" />
            <mxPoint x="350" y="910" as="targetPoint" />
          </mxGeometry>
        </mxCell>
        <mxCell id="2iKayN9RznRLKGwLZatp-11" value="&lt;font style=&quot;font-size: 13px;&quot;&gt;vlmax -&amp;nbsp; 1&lt;/font&gt;" style="text;strokeColor=none;align=center;fillColor=none;html=1;verticalAlign=middle;whiteSpace=wrap;rounded=0;" parent="1" vertex="1">
          <mxGeometry x="190" y="930" width="70.32" height="30" as="geometry" />
        </mxCell>
        <mxCell id="2iKayN9RznRLKGwLZatp-12" value="" style="endArrow=classic;html=1;rounded=0;exitX=0.75;exitY=0;exitDx=0;exitDy=0;" parent="1" edge="1">
          <mxGeometry width="50" height="50" relative="1" as="geometry">
            <mxPoint x="236" y="929" as="sourcePoint" />
            <mxPoint x="259" y="909" as="targetPoint" />
          </mxGeometry>
        </mxCell>
        <mxCell id="2iKayN9RznRLKGwLZatp-13" value="&lt;font style=&quot;font-size: 13px;&quot;&gt;unmasked elements&lt;/font&gt;" style="text;strokeColor=none;align=center;fillColor=none;html=1;verticalAlign=middle;whiteSpace=wrap;rounded=0;" parent="1" vertex="1">
          <mxGeometry x="870" y="930" width="140" height="30" as="geometry" />
        </mxCell>
        <mxCell id="2iKayN9RznRLKGwLZatp-14" value="" style="endArrow=classic;html=1;rounded=0;exitX=0.75;exitY=0;exitDx=0;exitDy=0;" parent="1" edge="1">
          <mxGeometry width="50" height="50" relative="1" as="geometry">
            <mxPoint x="930" y="930" as="sourcePoint" />
            <mxPoint x="953" y="910" as="targetPoint" />
          </mxGeometry>
        </mxCell>
        <mxCell id="2iKayN9RznRLKGwLZatp-15" value="" style="endArrow=classic;html=1;rounded=0;" parent="1" edge="1">
          <mxGeometry width="50" height="50" relative="1" as="geometry">
            <mxPoint x="914.1428571428573" y="928" as="sourcePoint" />
            <mxPoint x="897" y="908" as="targetPoint" />
          </mxGeometry>
        </mxCell>
      </root>
    </mxGraphModel>
  </diagram>
</mxfile>
